<svg xmlns="http://www.w3.org/2000/svg" version="1.1">
  <polygon points="7952,5497 7897,5512 7810,5508 7775,5521 7751,5532 7723,5537 7665,5563 7636,5578 7578,5601 7535,5655 7511,5695 7492,5714 7461,5737 7436,5798 7425,5830 7395,5875 7369,5955 7371,5968 7367,5968 7314,5972 7304,5970 7198,5971 7182,5977 7161,5987 7154,5987 7132,5991 7071,5964 7036,5972 6974,5985 6940,5980 6900,5973 6886,5941 6890,5885 6888,5858 6887,5821 6890,5799 6890,5791 6891,5787 6900,5770 6905,5758 6905,5741 6925,5698 6947,5687 6993,5689 7041,5712 7167,5744 7220,5765 7271,5733 7303,5687 7321,5672 7346,5642 7348,5578 7362,5486 7339,5363 7289,5342 7237,5339 7194,5290 7213,5234 7196,5197 7195,5161 7192,5117 7183,5086 7131,5010 7161,5013 7220,5039 7270,5069 7308,5074 7335,5051 7352,5016 7361,5002 7377,5006 7427,5006 7453,5001 7494,4996 7552,4991 7579,5006 7633,5016 7712,5021 7752,5020 7787,5091 7782,5148 7789,5187 7791,5216 7810,5263 7828,5316 7847,5344 7878,5391 7918,5461 7948,5494 7952,5497"  />
  Sorry, your browser does not support inline SVG.
</svg>

